<?xml version="1.0" encoding="iso-8859-1"?>
<!-- Uploaded to: SVG Repo, www.svgrepo.com, Generator: SVG Repo Mixer Tools -->
<svg fill="#000000" height="800px" width="800px" version="1.1" id="Layer_1" xmlns="http://www.w3.org/2000/svg" xmlns:xlink="http://www.w3.org/1999/xlink" 
	 viewBox="0 0 511.999 511.999" xml:space="preserve">
<g>
	<g>
		<g>
			<path d="M498.524,191.256c-13.501-1.762-21.891-6.698-31.605-12.413c-17.919-10.544-38.231-22.493-92.408-16.89
				c-0.041,0.004-0.082,0.008-0.124,0.014c-14.544,1.736-48.561,5.793-72.586,27.751c-0.067,0.058-0.131,0.116-0.195,0.176
				c-4.854,4.528-12.95,3.489-25.706,1.238c-6.458-1.139-13.138-2.317-19.9-2.317c-6.762,0-13.441,1.178-19.9,2.317
				c-12.758,2.25-20.853,3.29-25.705-1.238c-0.063-0.06-0.128-0.117-0.193-0.174c-24.024-21.957-58.045-26.018-72.588-27.754
				c-0.041-0.005-0.082-0.01-0.124-0.014C83.312,156.344,63,168.3,45.08,178.843c-9.714,5.715-18.103,10.651-31.604,12.413
				C5.794,192.259,0,198.89,0,206.682V214c0,8.482,6.038,15.719,14.357,17.207c9.347,1.672,9.347,5.827,9.347,7.601
				c0,28.458,9.522,55.413,26.81,75.897c18.362,21.755,44.171,34.724,72.67,36.519c2.673,0.168,5.388,0.254,8.076,0.254
				c27.747,0,53.55-9.188,72.653-25.87c20.719-18.093,32.129-43.602,32.129-71.833c0-3.616-0.162-7.195-0.482-10.64
				c-0.003-0.042-0.008-0.085-0.013-0.127c-0.369-3.383,0.578-4.876,1.322-5.706c1.879-2.096,6.724-4.594,19.129-4.594
				c12.405,0,17.249,2.498,19.129,4.594c0.744,0.829,1.691,2.324,1.322,5.707c-0.004,0.04-0.008,0.081-0.013,0.123
				c-0.32,3.436-0.483,7.017-0.483,10.644c0,28.231,11.411,53.741,32.128,71.833c19.105,16.682,44.908,25.87,72.663,25.87
				c2.681,0,5.396-0.086,8.068-0.254c28.502-1.795,54.309-14.764,72.671-36.52c17.287-20.484,26.809-47.437,26.809-75.896
				c0-1.775,0-5.929,9.349-7.601c8.318-1.488,14.356-8.725,14.356-17.207v-7.318C512,198.89,506.208,192.259,498.524,191.256z
				 M494.854,215.608c-14.239,2.546-22.405,11.003-22.405,23.2c0,24.723-8.194,48.047-23.073,65.675
				c-15.549,18.422-37.409,29.405-61.558,30.925c-2.341,0.148-4.72,0.223-7.078,0.223c-23.913,0-46.015-7.799-62.23-21.96
				c-17.222-15.037-26.706-36.31-26.706-59.897c0-3.116,0.137-6.185,0.409-9.123c0.948-8.89-2.348-14.656-5.285-17.932
				c-8.843-9.86-25.463-9.86-30.925-9.86c-5.462,0-22.083,0-30.926,9.86c-2.937,3.276-6.234,9.044-5.285,17.935
				c0.272,2.94,0.409,6.009,0.409,9.12c0,23.587-9.485,44.859-26.706,59.897c-16.216,14.161-38.317,21.96-62.239,21.96
				c-2.351,0-4.73-0.075-7.072-0.223c-24.147-1.52-46.009-12.504-61.557-30.925c-14.879-17.629-23.074-40.953-23.074-65.675
				c0-12.198-8.166-20.654-22.404-23.2c-0.754-0.135-1.302-0.811-1.302-1.608v-7.074c16.519-2.217,27.068-8.423,37.27-14.426
				c16.584-9.756,33.725-19.843,82.685-14.792c13.09,1.562,43.593,5.228,63.828,23.816c0.041,0.037,0.082,0.075,0.125,0.111
				c10.967,10.065,25.909,7.429,39.099,5.102c5.787-1.022,11.772-2.077,17.147-2.077c5.376,0,11.36,1.055,17.147,2.077
				c13.19,2.326,28.134,4.963,39.102-5.104c0.041-0.036,0.081-0.072,0.123-0.11c20.234-18.588,50.736-22.254,63.827-23.816
				c48.962-5.049,66.101,5.035,82.685,14.792c10.203,6.004,20.752,12.209,37.27,14.426V214h0
				C496.153,214.798,495.606,215.474,494.854,215.608z"/>
			<circle cx="36.215" cy="212.58" r="7.865"/>
			<circle cx="475.786" cy="212.58" r="7.865"/>
			<path d="M449.075,199.614c-10.538-9.355-31.568-19.492-71.947-14.679c-36.334,4.336-78.039,16.078-78.039,68.841
				c0,20.762,7.697,38.964,22.26,52.639c15.017,14.101,36.431,21.929,59.524,21.928c2.149,0,4.314-0.068,6.49-0.204
				c22.146-1.394,42.192-11.464,56.448-28.354c13.771-16.316,21.355-37.971,21.355-60.977
				C465.164,222.279,459.751,209.091,449.075,199.614z M386.365,312.324c-21.179,1.333-40.93-5.03-54.169-17.46
				c-11.291-10.603-17.261-24.811-17.261-41.088c0-32.717,17.964-47.606,64.071-53.107c26.936-3.216,48.087,0.618,59.55,10.795
				c7.242,6.429,10.763,15.374,10.763,27.345C449.318,279.11,422.842,310.027,386.365,312.324z"/>
			<path d="M134.874,184.935c-40.38-4.82-61.411,5.323-71.948,14.679c-10.675,9.478-16.088,22.665-16.088,39.196
				c0,23.005,7.584,44.661,21.355,60.977c14.255,16.889,34.302,26.959,56.448,28.354c2.176,0.137,4.338,0.204,6.489,0.204
				c23.09,0,44.508-7.828,59.524-21.928c14.563-13.674,22.26-31.877,22.26-52.639C212.913,201.013,171.207,189.27,134.874,184.935z
				 M179.805,294.864c-13.237,12.43-32.981,18.795-54.17,17.46c-36.477-2.297-62.952-33.214-62.952-73.515
				c0-11.97,3.521-20.915,10.763-27.345c8.818-7.828,23.365-11.903,41.877-11.903c5.549,0,11.46,0.367,17.673,1.108
				c46.107,5.501,64.07,20.39,64.07,53.107C197.066,270.052,191.097,284.26,179.805,294.864z"/>
		</g>
	</g>
</g>
</svg>