<?xml version="1.0" encoding="iso-8859-1"?>
<!-- Uploaded to: SVG Repo, www.svgrepo.com, Generator: SVG Repo Mixer Tools -->
<svg version="1.1" id="Layer_1" xmlns="http://www.w3.org/2000/svg" xmlns:xlink="http://www.w3.org/1999/xlink" 
	 viewBox="0 0 512 512" xml:space="preserve">
<rect x="122.726" y="164.849" style="fill:#C3C4C7;" width="266.558" height="16.343"/>
<path style="opacity:0.2;enable-background:new    ;" d="M340.91,164.845c-19.748,3.442-38.3,9.065-51.062,16.343h99.435v-16.343
	H340.91z"/>
<path style="fill:#394049;" d="M71.998,259.243l-53.814,42.03c-4.698,3.67-11.512,2.651-14.932-2.233l-1.368-1.955
	c-3.419-4.883-2.046-11.635,3.009-14.795l57.901-36.193L71.998,259.243z"/>
<path style="opacity:0.2;enable-background:new    ;" d="M62.792,246.097L9.578,279.361c2.504,7.317,5.522,14.563,9.102,21.525
	l53.317-41.642L62.792,246.097z"/>
<path style="fill:#394049;" d="M440.002,259.243l53.814,42.03c4.698,3.67,11.512,2.651,14.932-2.233l1.368-1.955
	c3.419-4.883,2.046-11.635-3.009-14.795l-57.901-36.193L440.002,259.243z"/>
<path style="opacity:0.2;enable-background:new    ;" d="M449.207,246.097l53.215,33.264c-2.504,7.317-5.522,14.563-9.102,21.525
	l-53.317-41.642L449.207,246.097z"/>
<rect x="222.017" y="202.383" style="fill:#394049;" width="67.966" height="16.343"/>
<path style="opacity:0.2;enable-background:new    ;" d="M272.674,202.381c0,0.003-0.001,0.007-0.001,0.011
	c0,3.58,0.127,9.258,0.684,16.332h16.631v-16.343H272.674z"/>
<path style="opacity:0.2;enable-background:new    ;" d="M171.083,164.845c19.748,3.442,38.3,9.065,51.062,16.343H122.71v-16.343
	H171.083z"/>
<path style="opacity:0.2;enable-background:new    ;" d="M239.32,202.381c0,0.003,0.001,0.007,0.001,0.011
	c0,3.58-0.127,9.258-0.684,16.332h-16.632v-16.343H239.32z"/>
<path style="fill:#394049;" d="M11.665,182.981c-13.813,16.445-5.82,168.022,101.59,168.022
	c112.824,0,118.722-123.933,118.722-148.612s-62.679-41.394-111.348-41.394S24.265,167.981,11.665,182.981z"/>
<path style="fill:#72649C;" d="M51.896,194.971c-13.324,13.324-22.27,132.478,65.097,132.478s91.935-95.969,91.935-115.08
	s-48.537-32.054-86.225-32.054C85.015,180.315,63.031,183.836,51.896,194.971z"/>
<path style="opacity:0.2;enable-background:new    ;" d="M122.702,180.315c-37.687,0-59.672,3.521-70.807,14.657
	c-4.699,4.699-8.847,22.568-8.424,43.725c0.375-18.484,4.174-33.509,8.424-37.759c11.135-11.135,33.119-14.657,70.807-14.657
	c36.841,0,84.04,12.37,86.143,30.776c0.061-1.857,0.082-3.44,0.082-4.688C208.927,193.259,160.391,180.315,122.702,180.315z"/>
<path style="fill:#394049;" d="M500.335,182.981c13.813,16.445,5.82,168.022-101.59,168.022
	c-112.824,0-118.723-123.933-118.723-148.612s62.679-41.394,111.348-41.394S487.734,167.981,500.335,182.981z"/>
<path style="fill:#72649C;" d="M460.104,194.971c13.324,13.324,22.27,132.478-65.097,132.478s-91.935-95.969-91.935-115.08
	s48.537-32.054,86.225-32.054C426.984,180.315,448.969,183.836,460.104,194.971z"/>
<path style="opacity:0.2;enable-background:new    ;" d="M389.297,180.315c37.687,0,59.672,3.521,70.807,14.657
	c4.699,4.699,8.847,22.568,8.424,43.725c-0.375-18.484-4.174-33.509-8.424-37.759c-11.135-11.135-33.119-14.657-70.807-14.657
	c-36.841,0-84.04,12.37-86.143,30.776c-0.061-1.857-0.082-3.44-0.082-4.688C303.072,193.259,351.609,180.315,389.297,180.315z"/>
<g>
	<path style="opacity:0.15;fill:#FFFFFF;enable-background:new    ;" d="M122.702,180.315c-37.687,0-59.672,3.521-70.807,14.657
		c-8.553,8.553-15.298,60.71,4.073,96.969L163.23,184.677C150.061,181.863,135.733,180.315,122.702,180.315z"/>
	<path style="opacity:0.15;fill:#FFFFFF;enable-background:new    ;" d="M467.371,217.4L362.619,322.151
		c9.281,3.366,20.001,5.298,32.388,5.298C462.767,327.449,472.588,255.785,467.371,217.4z"/>
</g>
</svg>